<svg width="758" height="847" viewBox="0 0 758 847" fill="none" xmlns="http://www.w3.org/2000/svg">
<path d="M749.9 433.106V432.106C754.7 424.906 755.2 415.606 750.9 406.806C750.4 405.706 749.8 404.706 749.3 403.606L749.1 394.606L745.5 396.806C745.4 396.706 745.4 396.606 745.3 396.506L744.6 381.906C744.6 381.706 744.6 381.606 744.6 381.406C744.6 380.506 744.5 378.906 744.2 376.906C741.3 360.606 737.8 345.806 733.5 331.806C727.7 312.606 720.4 293.806 711.8 275.806C696.4 243.806 676.3 213.706 651.9 186.306C649.6 183.806 647.3 181.906 645 180.606C644.9 159.006 630.9 139.706 609 133.306C602.4 131.406 595.7 130.306 588.6 130.206L588.3 129.906C588 129.606 587.7 129.406 587.4 129.206C586.5 128.506 585.5 127.606 584 126.606C562.5 112.006 541.4 100.506 519.6 91.4061C520.8 76.3061 523.2 61.4061 527 47.0061C528.4 41.7061 530.6 32.9061 525.1 23.8061C519.6 14.8061 510.9 12.8061 505.1 11.5061C491.3 8.40606 478.3 6.00605 465.5 4.30605C449.6 2.10605 433.8 0.706055 418.5 0.206055C385.9 -0.893945 353 2.40605 320.7 10.2061C304.7 14.0061 290.1 18.4061 276 23.5061C253.5 31.7061 231.6 41.7061 211.1 53.3061C193.8 63.0061 180.2 71.9061 168.1 81.2061C160.7 86.9061 158.8 93.7061 158.4 98.4061C158.1 102.306 158.6 109.806 165.4 116.806C168 119.506 170.5 122.406 172.9 125.306C149.4 141.206 127.7 159.706 108.3 180.506C102.1 187.106 96.6001 193.406 91.4001 199.906L55.3001 245.106L57.6001 244.706C56.4001 245.906 55.3001 247.106 54.2001 248.506C51.7001 251.706 49.8001 254.906 48.1001 257.606C47.0001 259.406 46.0001 261.006 45.2001 262.106C39.5001 269.506 36.9001 277.306 35.1001 284.006C33.7001 289.106 33.0001 294.206 32.8001 299.106H31.7001L26.9001 313.606C-8.89991 421.706 -1.7999 526.206 48.0001 624.106C75.2001 677.506 114.3 722.806 164.5 758.806C160.3 765.206 157.9 772.706 157.7 780.706C157.5 791.606 161.5 801.906 169.1 809.706C176.7 817.506 187 821.906 198.1 822.006C198.2 822.006 198.3 822.006 198.4 822.006C217.1 822.006 232.5 809.806 237.3 792.706C245.9 796.706 254.8 800.406 264.2 803.506C274.3 806.906 284.8 809.806 295.6 812.206C306.2 814.506 316.8 816.406 327 817.606C337.3 818.906 348.1 819.706 358.9 820.206C361.4 834.906 374.2 846.306 389.5 846.406C389.6 846.406 389.7 846.406 389.7 846.406C394.5 846.406 399.1 845.306 403.2 843.406C405.3 843.906 407.4 844.106 409.7 844.206C409.8 844.206 410 844.206 410.1 844.206C418.3 844.206 426 841.006 431.9 835.206C437.5 829.706 440.8 822.206 441.2 814.406C446.5 813.206 451.5 811.906 456.1 810.806C469.3 807.406 482.3 803.406 494.8 798.706C500.4 807.206 510.1 812.906 521 812.906C521 812.906 521 812.906 521.1 812.906C529.5 812.906 537.4 809.706 543.3 803.706C549.2 797.806 552.5 789.906 552.5 781.506C552.5 778.006 551.9 774.406 550.7 771.106C552.9 769.606 555.1 768.106 557.2 766.506C562 762.806 565.7 758.406 568.1 753.606C568.3 753.606 568.5 753.606 568.8 753.606C574.7 753.606 580.7 752.006 586.1 748.806C600 740.506 605.9 723.406 600.2 708.106C598.2 702.706 595.1 698.906 593.3 696.706C593 696.406 592.8 696.106 592.5 695.706C591.8 694.806 591.1 693.806 590.3 692.906C599.1 698.406 609.2 699.906 619.4 697.206C622.4 696.406 625.2 695.506 627.7 694.406C635.7 698.806 643.8 700.706 650.2 701.806C657 703.006 665.9 704.006 675.5 701.606C693.2 697.206 705.8 684.406 711.2 665.506C715.4 650.706 712.7 638.106 703.9 629.106C736 569.706 751.5 503.806 749.9 433.106Z" fill="white"/>
<path d="M378.8 824.406C327.7 824.406 278.1 814.406 231.4 794.606C186.3 775.506 145.8 748.206 111 713.406C76.2 678.606 48.9 638.106 29.8 593.006C10 546.306 0 496.706 0 445.606C0 394.506 10 344.906 29.8 298.206C48.9 253.106 76.2 212.606 110.9 177.806C145.7 143.006 186.2 115.706 231.3 96.6059C278 76.8059 327.6 66.8059 378.7 66.8059C429.8 66.8059 479.4 76.8059 526.1 96.6059C571.2 115.706 611.7 143.006 646.5 177.806C681.3 212.606 708.6 253.106 727.7 298.206C747.5 344.906 757.5 394.506 757.5 445.606C757.5 496.706 747.5 546.306 727.7 593.006C708.6 638.106 681.3 678.606 646.5 713.406C611.7 748.206 571.3 775.606 526.2 794.606C479.5 814.406 429.9 824.406 378.8 824.406Z" fill="white"/>
<path d="M543.8 575.506C552.6 556.206 555 535.606 557.6 514.206C546.3 520.706 535.9 527.306 522.5 529.006C526.2 525.206 529.5 522.106 532.3 518.606C541.9 506.506 547.7 493.006 548.6 477.506C549.1 468.806 549.7 460.206 549.1 451.506C549.1 450.906 549.2 450.306 549.2 449.306C551.1 450.306 552.8 451.106 554.4 452.106C556.2 453.306 557.1 453.206 557.1 450.706C557.4 441.006 558.4 431.406 558.3 421.706C558.3 418.006 558.3 418.006 562 419.006C560.1 407.806 558.6 396.806 551.7 387.406C551.2 386.706 550.7 385.506 549.7 385.806C548.6 386.206 549.2 387.406 549.2 388.206C549.2 403.106 548.7 418.006 547.1 432.806C547 433.306 547 433.906 546.9 434.406C546.3 437.706 546.3 437.806 543.2 436.506C541.4 435.806 541 436.206 541.1 438.006C541.6 452.006 540.7 465.906 538.3 479.706C538 481.506 537.5 483.306 537.2 485.106C536.9 486.906 536.3 486.706 535.1 485.806C532.5 483.906 532.5 484.006 531.8 487.206C529.4 498.406 525.6 509.206 521.6 520.406C520.2 517.906 519.6 515.506 519 513.106C518.8 512.306 518.9 511.306 517.9 511.106C517 510.906 516.5 511.706 515.9 512.406C509.6 519.706 503.5 527.106 496.7 534.006C479.4 551.406 460.2 566.206 437.3 575.806C419.9 583.106 401.9 586.506 382.9 585.506C371.9 584.906 361.1 583.506 350.5 580.806C344.5 579.206 338.8 576.906 333.1 574.406C329.8 572.406 325.8 571.006 323.2 568.406C317.1 562.206 309.8 562.206 301.9 562.106C293.2 562.106 284.5 561.306 276 558.906C275 558.606 273.9 558.506 273.7 557.306C273.5 556.206 274.5 555.806 275.2 555.206C280.6 550.506 285.9 545.606 290.7 540.406C295.7 534.906 300.6 529.306 303.9 522.606C305.9 518.506 305.8 518.206 301.4 518.306C288.8 518.606 276.2 517.606 263.8 516.006C254.1 514.706 244.5 512.506 235.2 509.406C229.5 507.506 224 505.206 218.8 502.106C217.2 501.106 216.8 500.506 218.4 499.006C220.7 496.906 223 494.906 224.9 492.406C225.1 492.306 225.4 492.206 225.6 492.006C237.2 481.306 249.9 472.406 264.3 466.006C266.2 465.106 266.6 463.706 266 461.806C265.2 459.006 264.8 456.106 263.9 453.306C262.7 449.406 262.7 444.906 259.3 441.806C257.7 440.406 257 438.606 256.7 436.606C256 431.806 256.6 426.906 256.8 422.106C256.9 421.006 257.1 419.806 255.4 419.806C253 419.806 252.2 418.206 251.7 416.106C250.5 410.306 251.1 404.506 250.9 398.606C250.8 396.606 250.8 395.106 248.5 394.406C247.1 394.006 246.6 392.606 246.4 391.206C246.6 389.306 246.9 387.406 247.4 385.606C248.2 382.606 247.2 380.706 244.4 380.406C242.4 380.206 242 379.206 241.7 377.606C240.8 373.106 241.1 368.506 241 363.906C241 362.106 240.4 360.606 239.3 359.106C237.1 356.006 234.8 352.906 233.4 349.406C233 348.306 231.5 347.106 232.6 346.006C233.1 345.506 234.7 346.306 235.8 346.806C237.3 347.506 238.2 347.206 238.2 345.306C238.2 343.306 238.4 341.306 238.7 339.306C239.4 332.706 241.8 326.406 243.9 320.206C244.6 318.206 244.3 317.406 242.3 316.806C240.4 316.306 238.5 315.506 236.7 314.806C235.3 314.206 234.2 314.506 233.5 315.906C232.4 318.006 230.8 319.706 229.1 321.406C222.3 328.106 214 332.206 205.2 335.406C203.2 336.106 202 336.906 201.9 339.306C201.7 342.606 201.3 345.806 200.7 349.006C198.8 359.406 195.3 369.006 188.9 377.506C187.7 379.106 185.5 380.706 185.6 382.206C185.7 383.906 187.8 385.506 189.2 387.106C191.2 389.406 191.7 391.906 190.6 394.706C189.6 397.306 187.8 399.306 185.7 401.106C181.9 404.306 177.6 406.906 174.2 410.606C167.1 415.706 160.3 421.206 153 426.006C150.8 427.406 148.6 428.906 146.1 429.906C140.8 432.006 136.2 430.706 132.1 427.306C130.4 425.906 129.5 426.106 128.1 427.406C126 429.306 123.6 430.706 121 431.906C115 434.906 109.3 433.006 103.6 430.806C93 426.606 83.1001 421.106 73.9001 414.306C69.1001 410.706 67.4 405.106 69.8 399.506C73.3 391.406 73.8001 383.106 73.2001 374.606C72.8001 369.206 70.4 364.306 68.3 359.306C62.8 346.406 58.3001 333.106 55.9001 319.306C54.2001 309.506 53.0001 299.606 55.7001 289.806C57.1001 284.706 58.8 279.806 62.1 275.506C65.4 271.206 67.6001 266.306 70.9001 262.106C73.4001 258.906 76.6001 257.206 80.5001 257.306C83.0001 257.406 83.5 256.306 84.1 254.306C87.5001 243.306 93.1001 233.706 102.5 226.606C112 219.306 122.6 217.306 134.2 219.806C134.5 219.906 134.8 219.906 135 219.906C138.2 220.906 140.5 220.806 143.7 218.306C152.8 210.906 163.3 210.706 173.8 215.506C184.4 220.306 192.2 228.706 199.4 237.506C205.5 244.906 210.1 253.006 212.1 262.506C213.3 268.106 214.6 273.806 212.8 279.506C210.4 287.506 205.1 293.406 198.4 298.206C189.7 304.406 179.9 306.906 169.4 307.406C167.7 307.506 166.8 308.106 166 309.506C159.4 320.706 150 328.406 137.4 331.406C133 332.506 130.5 334.606 128.1 338.106C122.7 346.006 115 350.306 105.4 350.706C96.2001 351.106 90.2001 345.706 85.4001 338.606C84.6001 337.406 83.8001 336.206 83.0001 335.006C82.5001 334.406 82.1 333.406 81.1 333.806C80.3 334.206 80.4001 335.206 80.4001 336.006C80.5001 337.806 80.9001 339.606 81.5001 341.306C84.1001 348.406 86.7 355.506 89.1 362.606C93.1 374.306 92.5001 385.906 88.7001 397.506C88.0001 399.606 86.3001 401.006 85.0001 403.106C94.0001 404.106 101.6 407.706 108.7 412.706C110.6 414.106 112.3 413.906 114.2 412.006C119.8 406.606 125.8 401.606 131.2 395.806C132.9 393.906 134.5 394.206 136.3 396.006C139.4 399.106 142.7 401.906 146 404.806C147.8 406.406 149.7 406.606 151.7 405.106C157.2 401.106 162.7 397.006 168.3 393.106C170 391.906 170.1 391.106 168.5 389.606C165.7 387.006 163.1 384.106 160.4 381.406C159 380.006 159.1 379.106 160.9 378.106C172.4 371.406 178.1 360.906 180.9 348.306C182.9 339.406 183.4 330.406 182.5 321.406C182.2 318.506 182.4 318.406 185.2 318.906C193.3 320.406 201.3 320.806 209.3 318.706C213.4 317.606 217.1 315.706 220.2 312.806C221.7 311.406 221.7 310.406 220 309.106C216.5 306.406 213.2 303.306 210 300.306C208.9 299.206 208.9 298.806 209.9 297.506C219.8 285.506 222.1 272.006 217.4 257.306C214.4 248.006 209.7 239.706 203.2 232.406C203.6 231.306 204.6 230.706 205.4 230.106C211.8 225.306 218.2 220.506 224.7 215.806C228.4 213.106 231.8 210.106 236 208.006C242.1 220.206 248.1 232.406 254.2 244.506C254.4 245.006 254.7 245.406 255.2 246.406C255.2 242.806 253.8 240.206 252.9 237.606C241.1 203.706 227.3 170.706 209 139.806C200.8 126.006 192 112.706 180.8 101.106C179.5 99.8061 179.9 99.3061 181.1 98.3061C193.9 88.5061 207.5 80.0061 221.5 72.1061C241.2 61.0061 261.8 51.6061 283.1 43.9061C296.9 38.9061 311 34.8061 325.4 31.4061C355.7 24.2061 386.3 20.9061 417.4 22.0061C432.3 22.5061 447.2 23.9061 462.1 25.9061C474.8 27.7061 487.4 30.0061 499.9 32.8061C507 34.4061 507.1 34.4061 505.3 41.3061C498.2 68.9061 495.5 96.9061 496.7 125.306C497.4 141.506 499 157.706 502.5 173.606C502.9 175.506 502 176.306 500.8 177.206C491.5 184.506 481.9 191.406 472.4 198.306C443.4 219.206 414.1 239.806 384.7 260.206C363 275.306 341.1 290.106 317.7 302.606C307 308.306 296 313.206 284.2 316.006C276.6 317.806 268.9 318.406 261.1 318.106C258.2 318.006 256.8 318.706 255.7 321.506C252.6 329.006 249.8 336.506 248.2 344.506C247.8 346.306 248.1 347.106 250.1 346.706C252 346.406 252.5 347.506 252.4 349.206C251.9 355.306 251.5 361.406 250.8 367.506C250.6 369.506 250.8 370.306 253 370.406C257.1 370.406 258 371.406 257.7 375.506C257.4 379.606 256.9 383.706 256.5 387.806C256.4 389.006 256.3 389.906 258.1 390.306C260.1 390.806 260.5 392.706 260.4 394.706C260.2 399.306 260.2 403.806 260 408.406C259.9 410.206 260.4 411.306 262.2 412.006C264.8 413.006 266.1 415.206 266.1 418.006C266.1 423.206 266.1 428.406 266.1 433.606C266.1 434.706 265.9 436.006 266.9 436.606C272.2 440.006 272.1 445.606 273.1 450.806C273.7 453.706 274.1 456.706 275.3 459.506C275.8 460.706 276.3 461.406 277.9 460.606C282.1 458.606 282.2 458.706 280.6 454.206C274.8 437.606 272.1 420.506 273.1 402.906C273.5 395.506 275.1 388.306 279.1 381.806C284.8 372.506 291.2 371.206 301 375.406C304.4 376.906 307.2 379.206 309.9 381.706C327.2 397.806 338.3 417.406 343.4 440.406C343.6 441.306 344.2 442.206 344.1 443.006C343.8 448.406 346.8 450.706 351.7 452.106C356.4 453.506 360.8 455.606 365.4 457.506C366.4 457.906 367.2 458.406 367.5 456.706C368.9 449.506 373.2 444.406 379.1 440.506C380.5 439.506 380.7 438.806 380.1 437.206C372.2 416.606 369.1 395.406 370.6 373.406C371.6 358.306 374.5 343.606 379.7 329.406C382.6 321.306 388.3 318.706 397.2 321.306C408.2 324.606 416.6 331.406 423.3 340.406C431.6 351.506 435.9 364.506 440.9 377.206C446.1 390.306 450.3 403.806 453.8 417.406C455.9 425.306 457.6 433.306 459.1 441.406C459.5 443.706 458.8 444.106 456.8 443.606C449.5 441.906 442.2 440.506 434.8 439.706C419.3 438.006 404 438.306 390.1 447.106C386.4 449.406 383.4 452.406 381 456.006C377.5 461.206 377.3 466.606 380.1 472.306C385.2 482.806 393.7 489.006 404.6 491.906C417.5 495.306 430.3 495.306 443.1 491.106C448.8 489.306 451.8 490.606 451.7 497.606C451.7 503.306 451.7 509.106 450.7 514.806C450.3 517.106 450.4 520.106 447.2 520.506C444.1 520.806 443.3 518.006 442.4 515.806C441.1 512.606 440.7 509.306 440.4 505.906C440.3 504.506 439.8 504.006 438.4 504.106C430.6 504.406 422.9 504.706 415.1 504.906C413.7 504.906 412.8 505.506 411.9 506.606C394.2 527.406 372.9 543.306 347.9 554.206C347.8 554.206 347.7 554.306 347.7 554.306C342.4 556.506 342.3 556.506 346.5 560.706C351.8 566.006 358.5 569.006 365.6 570.706C392 577.106 417.2 573.506 441.4 561.406C461.7 551.306 478.4 536.706 493.2 520.006C501.8 510.306 509.5 499.806 516.2 488.606C516.9 487.406 517.3 486.806 518.8 487.606C522.8 489.806 525 488.606 525.1 483.906C525.3 476.706 525.3 469.506 525.4 462.306C525.4 461.406 525.4 460.506 525.4 459.606C525.4 454.606 525.5 454.506 529.9 455.906C532.2 456.606 532.5 456.006 532.5 453.906C532.5 442.006 531.3 430.206 529.9 418.406C529.6 415.906 529.3 413.406 529 410.306C531.5 411.606 533.7 412.706 535.8 413.906C537.5 414.806 538.4 414.506 538.3 412.306C537.9 401.306 536.9 390.506 534.6 379.706C533.7 375.306 532.8 371.006 531.6 366.706C530.9 364.406 531.8 364.206 533.6 364.306C534.8 364.406 536 364.306 537.6 364.306C535.7 361.706 534 359.506 532.4 357.306C526.4 348.706 521.3 339.406 515.9 330.406C515 329.006 515.5 328.306 516.8 327.806C518.8 326.906 520.7 326.006 522.8 325.006C520 321.706 517.1 318.606 514.6 315.306C509.5 308.606 505.6 301.406 504.5 292.906C504.5 292.806 504.5 292.706 504.4 292.606C503.6 287.706 503.9 287.406 508.7 288.006C509.2 288.106 509.8 288.206 510.5 288.406C503.6 278.606 501.2 267.306 498.7 256.006C498.3 254.306 497.6 253.906 496 253.806C478 253.106 460 253.606 442.1 255.206C426.3 256.606 410.6 258.606 395.2 262.506C394.7 262.606 394.2 262.906 393.5 262.306C402.2 256.206 410.8 250.106 419.4 244.106C435.3 233.006 451.2 221.706 467.3 210.806C486 198.106 504.4 185.006 523.8 173.406C537.3 165.306 551.5 158.506 566.9 154.606C578.7 151.606 590.6 150.606 602.5 154.106C617.2 158.406 625.5 172.606 621.9 187.506C619.8 196.306 614.8 203.406 608.9 209.906C604.8 214.406 600.4 218.606 596.2 223.006C594.1 224.806 591.9 226.606 589.9 228.506C577.9 240.206 565 250.906 552.3 261.706C550.7 263.106 549.1 263.306 547.3 262.606C537.1 259.106 526.7 256.906 516 255.506C511.7 254.906 511.4 255.106 512 259.406C512 259.606 512.1 259.806 512.1 259.906C513.7 270.706 518.4 280.206 524.6 289.006C528.1 294.006 532 298.906 536.3 303.306C536.8 303.806 537.5 304.406 537.2 305.106C536.9 305.806 536 305.406 535.5 305.406C533 305.306 530.4 305.506 527.9 305.006C527.1 304.806 525.5 304.406 525.9 306.106C526.5 308.406 526.9 310.906 528.5 312.906C531 320.106 535 326.406 539.1 332.706C541 335.606 543 338.406 545.3 341.706C543 341.706 541.3 341.706 539.6 341.706C536.2 341.806 536.1 342.006 537.8 344.906C542.1 352.606 545.7 360.606 548.3 369.006C549.3 372.106 550.3 375.206 551.2 378.306C551.9 380.906 554.2 380.406 555.7 380.106C557.4 379.806 556.2 378.106 555.9 377.206C555.1 374.906 554.2 372.606 553.2 370.406C549.5 362.606 545.3 355.106 540.8 347.706C539 344.806 539.1 344.806 542.4 344.706C544.5 344.706 546.6 344.606 548.7 344.706C550.5 344.806 550.8 344.106 549.8 342.706C549.5 342.306 549.3 341.806 549 341.306C544.1 331.906 538.7 322.706 534.5 312.906C538 311.506 541.7 312.006 545.2 311.706C560.7 310.306 576 311.606 591.2 314.406C599.1 315.806 606.9 318.006 614.7 320.406C627.8 324.506 640.3 329.906 652.3 336.506C658.2 339.806 663.9 343.406 669.7 346.806C687.8 359.306 703.3 374.506 716.4 392.206C721.9 399.706 726.9 407.506 731 415.806C732.2 418.206 732.1 419.406 729.5 420.806C714 429.506 698.9 438.906 684.1 448.906C682.4 450.006 680.7 450.906 679.1 452.106C656.3 467.906 634.4 484.806 613.5 503.106C589.7 524.006 567.3 546.306 547.1 570.806C546.2 573.006 545.6 574.806 543.8 575.506ZM460.2 186.406C459.3 186.406 458.4 186.406 457.5 186.406C443.4 186.406 429.2 186.406 415.1 187.306C400.5 188.206 386 189.506 371.7 192.006C360.8 193.906 350.2 196.806 339.6 200.406C324.3 205.606 309.2 211.106 294.7 218.206C283.9 223.406 273.4 228.906 264.1 236.706C262.7 237.906 262 239.106 262.4 240.906C263 243.306 263.7 245.606 264.1 248.106C264.4 249.806 265.3 250.306 266.9 250.006C269.5 249.506 272.1 249.106 274.7 248.606C281.6 247.306 288.4 246.006 295.3 244.606C302.8 243.106 310.3 241.706 317.7 239.906C325.8 238.006 333.8 235.606 341.9 233.706C351.5 231.406 361 228.606 370.4 225.606C383.6 221.506 396.7 216.906 409.6 211.806C427.1 204.706 444.1 196.706 460.2 186.406ZM239.1 493.506C240 493.906 240.4 494.206 240.9 494.306C254.3 498.006 267.9 501.106 281.8 502.506C296.4 504.006 311 504.006 325.5 501.906C339.3 499.906 352.3 495.306 365.4 490.806C369 489.606 372.5 487.306 372.3 482.706C372.1 476.206 369.9 470.406 365.6 465.506C364.3 464.006 362.6 462.706 360.5 462.706C342.1 462.106 323.8 462.806 305.7 466.106C292 468.606 278.6 472.306 265.8 477.906C256.5 482.106 247.5 486.906 239.1 493.506ZM109.5 264.406C109.8 268.206 110.2 272.006 111.8 275.606C115.6 284.106 120.9 292.006 123.8 300.906C124.1 301.806 124.7 302.706 125.3 303.506C130.8 311.106 137.4 313.206 144.6 305.206C149.1 300.206 151.6 294.206 153.2 287.806C154.1 284.006 153.7 280.206 151.9 276.606C151.1 274.906 150.3 273.106 149.5 271.406C146.6 265.206 143.7 259.106 140.7 253.006C139.5 250.506 137.8 248.506 134.8 248.406C131.9 248.306 128.9 248.106 126.1 248.406C114.3 249.906 109.4 254.506 109.5 264.406ZM166 231.406C164.4 231.406 162.7 231.306 161.1 231.406C157.3 231.706 154.4 234.206 154.4 237.706C154.5 246.806 155.6 255.906 160.7 263.606C165.8 271.406 171.5 278.806 177.1 286.306C179.6 289.706 183.1 289.806 186.3 287.006C187.6 285.906 188.7 284.506 190 283.406C195.7 278.506 196.5 272.306 194.9 265.506C192.3 254.706 185.8 246.106 179.4 237.306C176 232.606 171.8 230.506 166 231.406ZM292.7 552.306C296.7 552.806 300 553.606 303.5 553.606C319.9 553.706 335.4 549.206 350.3 543.106C369 535.406 384.2 522.606 397.7 507.706C399 506.306 401.3 504.606 399.5 502.706C397.8 500.906 395.8 502.706 394.2 504.006C387.9 508.906 381.9 514.206 375.3 518.806C358.7 530.406 341 539.406 320.5 541.406C318.4 541.606 316.3 541.806 313.5 541.406C319.9 536.906 325.8 532.606 331.2 527.806C336.7 523.006 342.1 518.006 346.3 511.706C345.7 511.606 345.5 511.506 345.3 511.606C338.6 512.706 332 513.806 325.3 514.706C322.4 515.106 320.7 516.406 319.2 518.806C311.6 530.606 304.1 542.606 292.7 552.306ZM408.4 341.806C404.9 337.206 401.4 333.206 397 330.206C393.8 328.006 391.9 328.806 390.7 332.606C388.7 338.506 387.3 344.406 386.1 350.506C383.1 365.906 382.6 381.306 384.7 396.706C386.2 407.806 389.2 418.606 393.9 428.806C394.5 430.106 395.1 431.506 396.6 431.606C399.5 431.806 402.5 427.806 401.8 424.906C401.6 424.106 401.3 423.306 401.1 422.606C397.3 411.606 394.8 400.406 394 388.806C393.3 378.906 393.8 369.206 395.1 359.406C396.1 351.006 398.9 344.106 408.4 341.806ZM111.1 315.806C111.1 314.106 111.1 312.306 111.1 310.606C111.2 294.706 101.3 284.806 89.9001 275.906C87.2001 273.806 84.5001 274.606 82.1 277.106C80.4 279.006 79.6001 281.306 78.7001 283.606C76.0001 290.906 74.8001 298.306 75.4001 306.106C75.5001 307.806 75.7001 309.906 77.9001 310.206C80.3001 310.606 80.6001 308.206 81.0001 306.706C81.7001 304.206 82.5 301.606 83.6 299.206C84.8001 296.506 87.4001 294.906 89.9001 295.406C92.5001 295.906 93.1001 297.906 93.7001 300.106C95.0001 305.006 94.4 309.906 94.6 314.806C94.9 321.806 98 327.206 104.3 330.406C107.3 332.006 108.9 331.106 110.2 327.906C111.6 324.006 111.1 319.806 111.1 315.806ZM284.3 411.306C284.1 416.406 285.1 422.506 286.5 428.406C288.1 435.506 290.1 442.506 292.4 449.306C293.8 453.506 295.7 454.406 299.9 453.806C302.9 453.306 303.8 452.006 302.3 449.306C297.4 440.606 295.2 431.206 294.5 421.506C293.7 411.306 294.7 401.506 302.3 393.606C303.5 392.406 303.3 391.206 302.4 389.906C300.2 386.906 297.7 384.106 294.9 381.706C292.5 379.606 291.1 379.906 290 382.806C286.5 391.506 284.2 400.706 284.3 411.306ZM423.3 411.106V411.006C424.4 411.006 425.5 411.006 426.6 411.006C428.7 411.006 429.3 409.906 428.4 408.206C426 403.706 423.2 399.506 420.1 395.406C419 393.906 417.6 394.306 417.1 396.006C416.1 399.406 415.6 402.906 416 406.506C416.3 409.506 417.8 411.006 420.7 411.106C421.4 411.206 422.4 411.106 423.3 411.106ZM312.3 430.706H312.4C312.4 432.106 312.4 433.406 312.4 434.806C312.4 438.406 313.5 439.506 317.1 439.506C318.2 439.506 319.3 439.306 320.3 438.906C322.4 438.206 323.2 436.406 322.5 434.306C322.2 433.606 321.9 433.006 321.6 432.306C319.9 429.006 318.5 425.606 316.2 422.606C315.6 421.806 314.8 420.906 313.8 421.206C312.8 421.506 312.9 422.706 312.8 423.606C312.5 425.906 312.4 428.306 312.3 430.706Z" fill="#ED3D25"/>
<path d="M195.5 650.106C195.5 653.506 195.4 656.906 195.6 660.206C195.7 662.206 195 662.606 193.1 662.606C180.8 662.506 168.4 662.606 156.1 662.606C154.6 662.606 153.6 662.106 152.6 661.006C136 642.706 121.7 622.806 109.8 601.106C97.5002 578.606 87.9002 555.106 81.3002 530.306C76.4002 512.006 73.2002 493.506 71.4002 474.706C69.8002 457.606 69.9002 440.406 70.6002 423.306C70.6002 422.206 70.9002 421.106 71.1002 419.706C75.5002 422.706 79.7002 425.606 84.0002 428.106C92.9002 433.306 102.3 437.306 112.1 440.506C115.6 441.606 118.7 441.106 121.8 439.306C122.7 438.806 123.5 438.306 124.3 437.706C127.9 434.906 132 434.706 135.6 436.606C141.6 439.806 146.6 437.906 151.8 435.106C158.7 431.406 165.6 427.806 172.5 424.206C173.8 423.806 175 423.606 174.6 425.706C174.3 427.106 174.2 428.606 174 430.006C173.9 430.606 173.6 431.406 174.2 431.806C174.8 432.206 175.4 431.606 175.9 431.206C181.5 427.406 187.1 423.606 192.8 419.906C205.4 411.706 218.1 403.806 231.7 397.306C235.1 395.706 238.4 393.706 242.4 393.706C241.9 398.006 242.1 402.306 242 406.606C242 407.906 242.2 409.406 243.5 409.906C246.1 410.806 246.3 412.606 246.4 414.906C246.5 417.306 246.6 419.706 247.1 422.006C247.8 425.306 247 429.206 249.5 431.606C252.9 434.806 253.3 438.306 252.6 442.506C252.3 444.206 252.7 446.006 252.8 447.706C252.9 449.106 253.5 450.206 254.6 450.906C259.5 453.906 258.6 458.806 259 463.406C259.1 464.306 258.5 464.606 257.8 465.006C254.1 467.206 250.3 469.406 246.6 471.706C238.3 477.006 229.9 482.306 222.6 489.106C222.1 489.006 221.5 488.906 221 488.706C214.6 485.306 208.3 481.806 201.8 478.506C194.7 474.906 187.7 471.106 180.2 468.506C175.4 466.906 170 466.106 167.2 461.206C166.3 461.706 166.3 462.406 166.2 463.006C165 469.706 163.6 476.406 162.5 483.106C160.8 493.606 159.3 504.106 157.8 514.706C156.4 524.106 154.9 533.406 153.8 542.806C152.1 558.106 150.4 573.406 149.1 588.706C147.5 607.106 146.6 625.506 146.4 643.906C146.3 651.306 145.8 649.806 152.3 649.906C166.8 650.106 181.2 650.106 195.5 650.106Z" fill="#ED3D25"/>
<path d="M195.5 650.106C181.2 650.106 166.8 650.106 152.5 650.006C146 649.906 146.5 651.406 146.6 644.006C146.8 625.606 147.7 607.206 149.3 588.806C150.6 573.506 152.3 558.206 154 542.906C155.1 533.506 156.6 524.106 158 514.806C159.5 504.306 161.1 493.706 162.7 483.206C163.8 476.506 165.1 469.806 166.4 463.106C166.5 462.506 166.5 461.806 167.4 461.306C170.3 466.206 175.6 466.906 180.4 468.606C188 471.206 195 475.006 202 478.606C208.5 481.906 214.8 485.406 221.2 488.806C221.7 489.006 222.2 489.106 222.8 489.206C223.1 490.806 224.8 491.306 225.4 492.706C223.6 495.206 221.2 497.206 218.9 499.306C217.3 500.806 217.7 501.406 219.3 502.406C224.5 505.506 230 507.806 235.7 509.706C245 512.806 254.6 515.006 264.3 516.306C276.8 518.006 289.3 518.906 301.9 518.606C306.3 518.506 306.4 518.806 304.4 522.906C301.1 529.606 296.2 535.206 291.2 540.706C286.4 546.006 281.1 550.806 275.7 555.506C275 556.106 274 556.506 274.2 557.606C274.4 558.706 275.6 558.906 276.5 559.206C285 561.606 293.7 562.306 302.4 562.406C310.2 562.406 317.6 562.506 323.7 568.706C326.3 571.406 330.3 572.806 333.6 574.706C332.1 576.406 330.9 578.306 328.7 579.206C327.6 577.106 325.7 576.006 323.5 575.806C318.9 575.406 314.2 575.406 309.6 576.006C300.1 577.306 290.8 577.606 281.8 573.406C267.4 566.506 254.9 558.006 248.9 542.106C246.9 536.706 243.2 532.006 237.3 530.106C232.7 528.606 229.2 529.106 228.1 534.606C226.8 540.506 227.7 546.406 228 552.306C228.4 560.406 228.4 568.606 226.8 576.506C225.1 585.306 221.5 593.606 218.9 602.206C217.4 607.306 215.4 612.406 215.3 617.706C215 626.006 215.6 634.306 214 642.506C213.5 645.006 213.4 647.706 211.8 650.006C206.4 650.106 200.9 650.106 195.5 650.106Z" fill="#ECE72D"/>
<path d="M48.7001 320.506C50.1001 326.006 51.6001 331.606 53.0001 337.106C55.8001 347.906 58.7001 358.706 63.7001 368.806C65.9001 373.206 64.5001 377.506 63.7001 381.906C60.8001 397.106 59.1001 412.306 58.3001 427.806C57.4001 445.706 57.9001 463.606 59.7001 481.406C61.0001 493.906 63.2001 506.306 65.9001 518.606C71.8001 545.806 81.2001 571.806 93.7001 596.606C102.5 614.206 112.8 630.806 124.7 646.506C143.8 671.706 165.9 693.906 191.4 712.706C192.8 713.806 193.5 714.806 193.5 716.706C193.4 726.706 193.5 736.806 193.6 746.806C193.6 748.306 193.6 749.906 193.6 752.206C139.2 717.006 96.7001 671.506 67.7001 614.306C19.5001 519.406 14.6001 421.206 47.8001 320.606C48.0001 320.506 48.3001 320.506 48.7001 320.506Z" fill="#ED3D25"/>
<path d="M642.8 605.706C645.9 605.106 649.2 603.806 652.2 604.206C656.5 604.906 657.7 602.506 659.3 599.606C671.4 577.306 680 553.606 686.4 529.106C691 511.306 694.1 493.206 695.6 474.806C696.1 468.206 696.6 461.506 696.8 454.906C696.8 453.806 697 453.006 698 452.306C707.8 446.206 717.6 440.206 728.1 433.606C729.6 505.706 713 572.406 676 633.906C675.6 630.706 675.7 627.506 675.2 624.306C674.4 618.306 673.8 612.206 671.3 606.506C670.5 604.706 669.3 603.106 667.7 601.806C663.9 598.906 660.1 599.906 658.1 604.206C657.7 605.106 657.8 605.706 658.4 606.406C661.6 609.506 662 613.506 661.2 617.606C660.1 623.506 658.7 629.306 656.5 634.906C655.6 637.106 655.9 637.706 658.4 637.606C665.4 637.206 672.5 637.506 679.2 639.706C690 643.206 693.1 648.806 690 659.706C687.1 670.006 681.1 677.806 670.2 680.506C664.8 681.806 659.3 681.306 653.9 680.306C645.3 678.806 637.1 676.206 631 669.406C630 668.206 629.3 669.006 628.5 669.506C623.9 672.206 619.1 674.706 613.9 676.106C609.6 677.206 605.6 676.706 601.9 674.306C597.7 671.706 596.2 667.906 596.8 662.806C594 663.806 592 665.806 589.7 667.006C586.8 668.506 584 670.106 580.9 671.206C572.1 674.306 565.5 670.806 563 661.606C562.5 659.606 562.1 657.506 561.6 655.306C557.5 658.206 553.4 660.906 548.7 662.706C543.5 664.706 538.2 664.906 533 662.906C528 661.006 525.6 656.906 526.4 651.506C526.6 649.906 527 648.306 527.3 646.706C529 642.306 530.6 637.906 532.4 633.606C538.7 618.606 547.1 605.106 559.7 594.606C568 587.706 577.2 582.206 587.7 579.706C594.5 578.106 604.3 582.306 601.5 592.606C600.6 596.006 599.1 599.306 599.2 602.906C599.2 603.606 599.1 604.706 599.5 605.006C600.3 605.606 600.9 604.606 601.6 604.206C608.6 599.606 615.7 595.006 623.9 592.606C626.8 591.806 629.6 591.606 632.7 592.806C638 594.806 639.4 598.906 639.8 603.906C639.5 606.906 639.6 606.906 642.8 605.706ZM588.1 598.806C588.2 594.306 585.6 592.606 581.6 594.406C580 595.106 578.5 596.006 577.1 597.006C566.2 604.906 556.4 613.906 549 625.206C545.5 630.506 542.4 636.106 541.1 642.506C540.3 646.706 542.3 648.806 546.5 648.106C549.8 647.606 552.5 646.006 555.1 644.206C567.2 635.506 576.2 624.106 583.6 611.306C585.8 607.406 587.9 603.506 588.1 598.806ZM580.3 650.306C580.2 654.206 581.6 655.306 584.9 654.606C586.9 654.206 588.7 653.306 590.4 652.206C600.3 646.306 608.6 638.406 616.9 630.506C620.4 627.206 623.7 623.706 625.8 619.306C627.9 615.006 626.1 612.006 621.3 611.706C616.8 611.406 612.6 612.706 608.7 614.606C597.1 620.306 589 629.506 583.5 641.206C582 644.306 580.8 647.506 580.3 650.306ZM667.2 647.806C658 648.406 650 652.506 642.3 657.206C640.7 658.206 641 658.806 642 659.806C645.7 663.406 650.1 665.906 655 667.506C664 670.406 672.7 667.506 677.2 660.206C680.2 655.406 678.6 650.906 673.3 648.906C671.4 648.106 669.4 647.806 667.2 647.806ZM646 628.706C646.1 625.706 645.4 625.006 643.1 625.506C642 625.706 641 626.206 640 626.606C630 631.306 622.9 639.306 616.4 648.006C614.7 650.306 613.2 652.606 612.1 655.206C611.6 656.406 611.1 657.906 612.2 659.106C613.4 660.306 614.8 660.206 616.3 659.706C617.9 659.206 619.4 658.406 620.6 657.406C629 650.906 636.5 643.606 642.6 634.906C644.3 632.806 645.7 630.706 646 628.706Z" fill="#ED3D25"/>
<path d="M430.9 667.706C421.2 667.906 413.3 668.806 405.3 668.806C401.4 668.806 397.5 668.306 393.6 667.606C388.1 666.606 384.8 663.006 383.1 657.906C380.8 651.106 379.2 644.106 378.1 637.006C377.2 631.206 378.2 625.406 381.1 620.306C384.2 614.906 385.2 609.106 386.1 603.206C386.4 601.106 387 599.106 387.7 597.206C389.4 592.506 391.8 590.906 396.8 591.106C403.5 591.406 410.1 591.706 416.8 591.206C425.9 590.606 433.9 587.106 441.3 582.206C445.2 579.706 448.9 576.906 452.6 574.206C457.1 570.906 462.1 568.206 467.7 567.706C476.3 566.906 483.7 563.106 491.2 559.206C504.1 552.506 516.4 544.706 528.5 536.606C530.7 535.106 533.1 533.906 535.6 533.106C539.4 531.906 542.5 533.906 543.1 537.906C543.6 541.806 542.2 545.006 540.2 548.206C537.1 553.006 533.1 557.006 529.1 560.906C526 564.006 524.8 567.706 524.4 571.906C523.7 578.806 523.6 585.806 521.9 592.506C520 599.906 515.2 605.706 510.7 611.706C508.1 615.106 505.9 618.806 504.1 622.606C503.4 624.106 503.2 625.706 503.2 627.406C503.2 633.106 501.7 638.306 498 642.806C495.7 645.606 495.5 649.206 495.4 652.706C495.2 657.406 495.2 662.206 495 666.906C494.6 673.306 490.5 677.806 484.2 679.806C478.3 681.606 472.9 679.806 467.4 678.106C458.8 675.306 450.5 671.906 441.9 669.306C437.6 668.106 433.4 667.506 430.9 667.706Z" fill="#ED3D25"/>
<path d="M642.8 605.706C639.7 606.906 639.6 606.906 639.3 603.906C639 598.906 637.5 594.806 632.2 592.806C629.2 591.606 626.3 591.806 623.4 592.606C615.2 595.006 608.1 599.606 601.1 604.206C600.5 604.606 599.8 605.706 599 605.006C598.6 604.706 598.8 603.706 598.7 602.906C598.6 599.306 600.1 596.006 601 592.606C603.8 582.306 594 578.006 587.2 579.706C576.6 582.306 567.5 587.706 559.2 594.606C546.6 605.106 538.2 618.606 531.9 633.606C530.1 637.906 528.5 642.406 526.8 646.706C524.6 645.506 522.1 646.006 519.8 645.906C514.7 645.406 509.5 646.106 504.4 645.306C506.5 640.306 509.5 635.706 511.9 630.906C516 622.706 520.8 614.906 525.1 606.906C530 597.706 535.7 589.006 540.9 580.006C541.8 578.506 542.2 576.706 543.6 575.406C545.4 574.606 546.1 572.806 547.2 571.506C567.4 547.006 589.8 524.706 613.6 503.806C634.4 485.506 656.4 468.506 679.2 452.806C680.8 451.706 682.5 450.706 684.2 449.606C684.1 456.306 684.3 463.006 683.5 469.806C682.9 474.806 682.6 479.906 682 485.006C681.3 491.206 680.3 497.406 679.1 503.506C678.2 507.806 677.5 512.106 676.6 516.406C675.4 521.706 674.1 526.906 672.6 532.106C671.1 537.306 669.6 542.406 667.9 547.506C666.3 552.306 664.3 557.006 662.7 561.706C660.4 568.306 657.5 574.506 654.7 580.906C651.2 588.706 647.1 596.206 643.2 603.706C643 604.406 642.7 605.006 642.8 605.706Z" fill="#ECE72D"/>
<path d="M365.4 751.806C365.4 744.706 365.4 737.606 365.4 730.406C365.4 724.906 369.3 719.906 374.3 719.106C380.7 718.006 386 720.906 388 726.706C388.4 727.906 388.4 729.006 388.4 730.206C388.4 744.206 388.4 758.206 388.4 772.106C388.4 776.906 389.1 777.506 393.7 777.306C398.1 777.206 402.4 776.506 406.8 776.106C408.9 775.906 409.7 774.706 409.4 772.806C409 770.106 408.4 767.406 407.9 764.706C406.9 758.506 410.7 752.906 416.6 751.606C422.8 750.206 428.5 753.806 430.2 760.006C430.9 762.706 431.5 765.506 432 768.306C432.7 771.406 433.7 772.306 436.7 771.706C441.9 770.606 447.2 769.406 452.4 768.106C461.8 765.806 471 763.106 480.1 759.706C481.2 759.306 482.4 758.906 483.3 758.206C484.7 757.206 485.2 755.906 484.4 754.206C483 751.306 481.8 748.406 480.4 745.506C477.3 739.406 479.5 732.206 485.3 729.306C491.1 726.506 497.9 728.906 500.9 735.106C502.4 738.106 503.7 741.206 505.2 744.206C506.5 746.906 508.2 747.406 510.7 746.006C513.7 744.306 516.7 742.606 519.6 740.806C522.7 738.906 523 737.206 521.1 734.006C516.5 726.506 511.9 719.006 507.3 711.506C505 707.706 502.6 703.906 500.3 700.106C497 694.506 498.5 687.106 503.5 684.106C509.6 680.506 516.3 682.106 520 688.206C529 702.806 538 717.506 546.9 732.106C550.8 738.506 549.7 744.306 543.6 748.906C531.1 758.406 517.1 765.306 502.8 771.506C485.9 778.906 468.4 784.806 450.5 789.406C438.9 792.306 427.4 795.206 415.5 796.606C397.4 798.706 379.3 799.006 361.1 798.306C350.5 797.906 340 797.106 329.5 795.806C319.6 794.606 309.9 792.906 300.2 790.806C290.3 788.606 280.6 786.006 271.1 782.806C253.9 777.006 237.5 769.406 222.4 759.406C210.9 751.706 209 740.506 216.8 727.806C219.5 723.406 222.4 719.006 227.3 716.706C231.1 714.906 237.7 716.206 241.1 719.806C243.3 722.206 243.1 725.406 240.6 728.506C239.1 730.306 237.3 731.906 235.7 733.606C231.7 737.806 232 741.206 236.8 744.406C245.3 749.906 254.6 753.806 263.9 757.606C278.8 763.606 294.1 768.206 309.7 771.706C322.9 774.706 336.4 776.806 349.9 777.906C353.4 778.206 356.8 778.506 360.3 778.506C363.7 778.506 365.3 777.006 365.3 773.506C365.4 766.306 365.4 759.106 365.4 751.806Z" fill="#ED3D25"/>
<path d="M211.9 650.006C213.5 647.806 213.6 645.106 214.1 642.506C215.6 634.306 215.1 626.006 215.4 617.706C215.6 612.306 217.5 607.306 219 602.206C221.6 593.606 225.1 585.306 226.9 576.506C228.5 568.506 228.4 560.406 228.1 552.306C227.8 546.406 226.9 540.506 228.2 534.606C229.4 529.106 232.8 528.606 237.4 530.106C243.2 532.006 247 536.706 249 542.106C254.9 558.006 267.5 566.606 281.9 573.406C290.8 577.706 300.2 577.306 309.7 576.006C314.3 575.406 319 575.406 323.6 575.806C325.8 576.006 327.7 577.106 328.8 579.206C329 582.406 327.4 585.106 325.4 587.306C313.3 601.006 311.5 617.406 312.6 634.606C313 641.406 314.1 648.006 316.8 654.206C317.5 655.906 317.8 657.906 316.3 659.306C314.5 661.006 312.1 661.506 309.7 660.806C303.9 659.106 298 658.206 291.9 658.206C269.6 658.106 249.4 664.206 231.9 678.406C227.1 682.306 223.3 687.206 219.4 692.006C216 696.206 212.7 700.406 207.1 701.906C203.2 702.906 200.7 701.806 199 698.306C198.4 697.106 197.9 695.806 197.6 694.506C194.9 681.706 196.6 669.906 205.4 659.706C207.9 656.706 210.5 653.806 211.9 650.006Z" fill="#ED3D25"/>
<path d="M528.7 313.406C527.1 311.406 526.7 308.906 526.1 306.606C525.7 304.906 527.3 305.306 528.1 305.506C530.6 306.006 533.2 305.806 535.7 305.906C536.3 305.906 537.1 306.306 537.4 305.606C537.8 304.806 537 304.306 536.5 303.806C532.2 299.406 528.4 294.606 524.8 289.506C518.6 280.706 513.9 271.206 512.3 260.406C512.3 260.206 512.2 260.006 512.2 259.906C511.7 255.606 511.9 255.406 516.2 256.006C526.8 257.406 537.3 259.606 547.5 263.106C549.3 263.706 550.9 263.506 552.5 262.206C565.3 251.406 578.1 240.606 590.1 229.006C592.1 227.106 594.3 225.306 596.4 223.506C598.6 224.906 600.2 227.006 601.9 228.906C611.4 239.706 620.5 250.806 628.5 262.806C635.2 272.906 641.8 283.206 647.4 294.006C652 303.006 656.4 312.106 660.2 321.506C663.3 328.906 665.8 336.406 668.6 343.906C669.1 345.106 669.1 346.506 669.7 347.706C663.9 344.206 658.2 340.606 652.3 337.406C640.3 330.806 627.8 325.406 614.7 321.306C607 318.906 599.2 316.706 591.2 315.306C576 312.506 560.7 311.206 545.2 312.606C541.6 312.906 537.9 312.406 534.5 313.806C532.8 312.506 530.7 313.106 528.7 313.406Z" fill="#ECE72D"/>
<path d="M722.7 383.006C717.9 376.906 713.2 371.406 708.4 366.006C700.8 357.606 692.2 350.406 682.9 343.906C681.6 343.006 680.9 342.006 680.4 340.506C671.3 313.006 659.1 287.006 643.3 262.706C634.5 249.106 624.7 236.306 614.1 224.006C613.2 223.006 612.6 222.406 614 221.206C620.8 215.206 626.6 208.406 631.8 201.106C633.3 199.106 634 199.406 635.5 201.106C658.2 226.606 677.2 254.706 692 285.506C700.2 302.606 707 320.206 712.5 338.306C716.7 352.306 720 366.606 722.6 381.006C722.7 381.406 722.7 381.906 722.7 383.006Z" fill="#ED3D25"/>
<path d="M242.5 393.806C238.6 393.806 235.2 395.806 231.8 397.406C218.2 403.806 205.5 411.806 192.9 420.006C187.2 423.706 181.6 427.506 176 431.306C175.5 431.706 174.9 432.206 174.3 431.906C173.7 431.506 174 430.706 174.1 430.106C174.2 428.706 174.4 427.206 174.7 425.806C175.1 423.706 174 423.906 172.6 424.306C173.5 419.806 174.3 415.306 174.6 410.706C178 407.106 182.3 404.406 186.1 401.206C188.2 399.406 190 397.406 191 394.806C192.1 392.006 191.6 389.506 189.6 387.206C188.2 385.606 186.1 384.006 186 382.306C185.9 380.806 188.2 379.206 189.3 377.606C195.7 369.106 199.2 359.506 201.1 349.106C201.7 345.906 202.1 342.606 202.3 339.406C202.4 337.006 203.6 336.206 205.6 335.506C214.5 332.406 222.7 328.206 229.5 321.506C231.2 319.806 232.7 318.106 233.9 316.006C234.6 314.606 235.7 314.406 237.1 314.906C238.9 315.606 240.8 316.406 242.7 316.906C244.7 317.506 245 318.306 244.3 320.306C242.1 326.606 239.8 332.806 239.1 339.406C238.9 341.406 238.6 343.406 238.6 345.406C238.6 347.406 237.7 347.606 236.2 346.906C235.1 346.406 233.5 345.606 233 346.106C231.9 347.206 233.4 348.406 233.8 349.506C235.2 353.106 237.5 356.106 239.7 359.206C240.8 360.706 241.3 362.206 241.4 364.006C241.5 368.606 241.2 373.106 242.1 377.706C242.4 379.206 242.8 380.306 244.8 380.506C247.7 380.806 248.7 382.706 247.8 385.706C247.3 387.606 247 389.406 246.8 391.306C245 391.406 244.2 393.406 242.5 393.806Z" fill="#ECE72D"/>
<path d="M319.2 627.406C319.2 626.806 319.3 626.106 319.2 625.506C317.9 614.006 321.8 603.906 327.5 594.206C329.4 591.106 331.5 588.106 333.3 585.006C336.3 579.806 339.1 580.906 342.5 583.806C346.6 587.306 351.5 588.806 356.6 589.906C363 591.206 369.5 591.106 376 591.006C381.8 590.906 383.8 593.506 382.4 599.206C380.9 605.206 378 610.706 375.9 616.506C373.2 623.806 371.3 631.306 372 639.206C372.4 643.606 374.4 647.506 375.8 651.706C376.4 653.606 377.1 655.506 377.4 657.506C378 661.306 375.9 663.406 372 662.806C369.9 662.506 367.9 661.906 366.2 660.706C360.6 656.706 354.9 657.706 349 659.806C347.6 660.306 346.1 660.706 345 661.506C338.3 666.706 332.6 664.206 327.2 660.006C323.1 656.806 320.6 652.806 320.1 647.306C319.5 640.506 319.3 633.906 319.2 627.406Z" fill="#ED3D25"/>
<path d="M108.7 213.606C113.9 207.006 119.1 201.206 124.4 195.506C144.9 173.706 167.7 154.606 192.9 138.506C194.6 137.406 195.5 137.506 196.7 139.106C202.1 146.206 206.8 153.806 211.5 161.306C212.6 163.006 211.5 163.506 210.4 164.206C197.7 172.106 185.8 181.006 174.4 190.706C169.5 194.806 164.8 199.006 160.2 203.506C159.1 204.606 157.9 205.206 156.2 205.406C150.4 206.006 144.3 206.506 139.8 210.606C137.3 212.906 135.1 213.006 132.2 212.306C128.3 211.306 124.4 211.706 120.5 211.706C116.8 211.706 113.1 212.806 108.7 213.606Z" fill="#ED3D25"/>
<path d="M236.5 208.306C232.4 210.406 229 213.506 225.2 216.106C218.7 220.806 212.3 225.606 205.9 230.406C205.1 231.006 204.1 231.606 203.7 232.706C195.5 224.406 186.6 216.806 176.5 210.806C175.7 210.306 175 209.906 174.2 209.506C172.9 208.806 173.1 208.206 174.1 207.306C182.8 199.306 192 192.006 201.4 185.006C206.6 181.106 212.2 177.706 217.6 174.006C219.3 172.806 220 174.006 220.5 175.106C224.6 183.406 229.1 191.406 232.8 199.906C234 202.606 235.7 205.206 236.5 208.306Z" fill="#ECE72D"/>
<path d="M505.3 143.006C504.8 136.306 505 129.706 505.4 123.006C505.6 119.506 505.6 116.106 505.7 112.606C505.8 109.406 505.8 109.406 508.6 110.606C530.9 119.706 551.8 131.306 571.7 144.806C572.5 145.306 573.2 146.006 574.5 147.106C560.7 148.806 548.2 153.006 536 158.406C535.1 158.106 534.2 157.906 533.4 157.506C524.6 152.106 515 147.406 505.3 143.006Z" fill="#ED3D25"/>
<path d="M535.7 665.406C539.3 665.306 542.3 667.006 544.6 669.906C554.7 683.006 564.8 696.106 574.9 709.206C576.6 711.306 578.5 713.306 579.5 715.906C581.5 721.206 579.6 727.106 574.8 729.906C569.9 732.806 563.2 731.706 559.8 727.306C548.6 712.806 537.3 698.306 526.2 683.706C523.3 679.906 523.1 675.406 525.5 671.106C527.6 667.206 531 665.306 535.7 665.406Z" fill="#ED3D25"/>
<path d="M407.6 276.206C418.5 276.506 428.6 280.106 438.5 284.406C445.1 287.206 451.4 290.706 457.5 294.506C459.3 295.606 460.9 296.906 462 298.706C463.7 301.506 462.8 303.806 459.6 304.806C455 306.206 450.4 305.406 445.9 304.206C439.8 302.506 433.8 300.206 427.6 298.906C410.6 295.306 394.5 297.006 379.6 306.606C375.2 309.506 370.9 308.606 369 304.506C368.3 302.906 368.1 301.206 369.5 299.706C377.2 290.706 385.4 282.606 396.7 278.106C400.2 276.706 403.8 275.906 407.6 276.206Z" fill="#ED3D25"/>
<path d="M295.5 322.206C301.9 322.006 307.3 324.206 312.7 326.506C319.3 329.306 325.7 332.506 331.7 336.606C334.3 338.406 334.6 340.606 332.5 343.006C329.2 347.006 324.9 347.706 320 345.506C314.9 343.206 309.3 342.806 303.9 341.506C293 338.906 283.7 343.006 274.7 348.206C272.7 349.306 270.8 350.506 268.8 351.606C267.4 352.306 266.3 352.306 265.4 350.406C261.9 343.606 262.1 342.106 267.6 336.906C273 331.906 278.5 327.006 285.4 324.006C288.7 322.606 292.2 321.906 295.5 322.206Z" fill="#ED3D25"/>
<path d="M281.8 715.706C285.7 713.806 289.5 713.006 293.4 712.706C300.4 712.206 307.2 712.806 314 714.806C315.7 715.306 316.1 715.806 314.8 717.206C312.9 719.306 311.6 721.806 311 724.706C310.8 725.806 310.8 726.906 311.1 727.906C311.9 731.006 313.2 731.606 316 730.206C318.7 728.906 321.5 727.806 324.6 727.706C326.3 727.606 328.2 727.406 329.3 729.106C330.4 730.806 329.4 732.206 328.6 733.706C326.4 737.406 323.3 740.306 319.8 742.806C319 743.406 318.6 743.506 318 742.406C317 740.606 315.2 740.106 313.1 740.006C304.1 739.806 295.6 741.906 287.3 744.906C282.8 746.506 278.2 746.706 274.2 743.306C270.7 740.306 270.6 736.606 273.9 733.406C276.7 730.706 280.1 729.706 283.8 729.406C286.9 729.206 287.9 727.806 287.3 724.706C286.6 721.206 284.6 718.406 281.8 715.706ZM291.8 738.206C298.6 738.106 304.2 735.906 309.6 733.206C311.3 732.406 310.3 731.706 309.3 731.206C302.7 728.006 295.9 728.206 289.2 730.606C287.4 731.306 285.3 732.606 285.7 734.906C286.1 737.106 288.2 737.806 290.4 737.906C291 738.006 291.7 738.206 291.8 738.206Z" fill="#ED3D25"/>
<path d="M505.3 143.006C515 147.306 524.5 152.006 533.6 157.606C534.4 158.106 535.3 158.206 536.2 158.506C526.6 163.006 517.6 168.606 508.3 174.106C506.6 170.706 506.3 167.006 505.9 163.306C505.3 157.906 506.1 152.406 504.9 147.006C504.6 145.706 504.7 144.306 505.3 143.006Z" fill="#ECE72D"/>
<path d="M198.2 800.106C187.7 800.006 179.5 791.706 179.7 781.306C179.9 770.306 188.6 762.606 198.9 763.006C209.2 763.306 217 771.306 216.9 781.806C216.7 792.106 208.6 800.206 198.2 800.106ZM198.3 797.206C207 797.206 213.9 790.406 214 781.706C214.1 772.906 207.1 765.606 198.4 765.706C189.7 765.806 182.8 772.606 182.7 781.306C182.7 790.306 189.4 797.106 198.3 797.206Z" fill="#ED3D25"/>
<path d="M530.4 781.506C530.4 786.706 526.2 790.806 521 790.806C515.8 790.806 511.6 786.706 511.5 781.506C511.4 776.506 515.9 772.006 520.8 771.906C525.9 771.906 530.4 776.306 530.4 781.506Z" fill="#ED3D25"/>
<path d="M389.7 824.406C384.6 824.406 380.6 820.306 380.5 815.106C380.5 809.406 384.4 805.606 390.2 805.706C395.2 805.706 399.4 810.006 399.4 815.006C399.3 820.206 394.9 824.506 389.7 824.406Z" fill="#ED3D25"/>
<path d="M409.8 803.406C415.5 803.406 419.2 807.106 419.2 812.706C419.2 817.906 415 822.206 409.9 822.106C404.7 822.006 400.4 817.606 400.5 812.406C400.5 807.406 404.6 803.406 409.8 803.406Z" fill="#ED3D25"/>
<path d="M504.5 645.406C509.6 646.206 514.8 645.506 519.9 646.006C519.9 646.906 520 647.806 519.9 648.706C519.8 655.006 519.2 655.806 512.9 656.606C510.7 656.906 508.3 656.806 506.1 656.706C503.3 656.506 502.4 655.306 502.4 652.406C502.3 649.806 502.2 647.206 504.5 645.406Z" fill="#ED3D25"/>
<path d="M460.2 186.406C444.1 196.706 427.1 204.706 409.6 211.706C396.7 216.806 383.7 221.406 370.4 225.506C361 228.506 351.5 231.306 341.9 233.606C333.8 235.606 325.8 237.906 317.7 239.806C310.3 241.506 302.8 243.006 295.3 244.506C288.4 245.906 281.6 247.206 274.7 248.506C272.1 249.006 269.5 249.406 266.9 249.906C265.3 250.206 264.4 249.706 264.1 248.006C263.6 245.606 262.9 243.206 262.4 240.806C262 239.006 262.7 237.806 264.1 236.606C273.4 228.906 283.9 223.306 294.7 218.106C309.2 211.106 324.3 205.506 339.6 200.306C350.1 196.806 360.8 193.806 371.7 191.906C386.1 189.406 400.6 188.106 415.1 187.206C429.2 186.306 443.4 186.306 457.5 186.306C458.4 186.406 459.3 186.406 460.2 186.406Z" fill="#ECE72D"/>
<path d="M291.8 738.206C291.7 738.206 291 738.006 290.3 738.006C288.1 737.906 286 737.306 285.6 735.006C285.2 732.706 287.3 731.406 289.1 730.706C295.8 728.206 302.6 728.006 309.2 731.306C310.2 731.806 311.2 732.406 309.5 733.306C304.1 735.906 298.6 738.106 291.8 738.206Z" fill="#ECE72D"/>
<path d="M190.7 781.706C190.7 779.206 190.8 776.606 190.7 774.106C190.7 772.606 191.1 771.906 192.7 772.006C195.1 772.106 197.4 771.906 199.8 772.106C202 772.306 204.1 772.906 205 775.406C205.7 777.506 205.3 779.306 203.7 780.906C203.3 781.306 202.7 781.706 203.2 782.206C205.3 784.106 204.6 786.806 205.1 789.106C205.3 789.706 206.1 790.806 204.5 790.906C203.4 791.006 202.5 790.706 202.5 789.306C202.4 788.106 202.2 787.006 202.1 785.806C201.9 783.806 200.7 783.006 198.8 782.906C193.2 782.506 193.2 782.506 193.2 788.106C193.2 788.606 193.2 789.006 193.2 789.506C193.2 790.406 193.1 791.106 191.9 791.106C190.9 791.006 190.5 790.506 190.5 789.506C190.6 788.206 190.5 787.006 190.5 785.706C190.5 784.406 190.7 782.906 190.7 781.706ZM197 780.506C198 780.506 199 780.606 200 780.506C201.4 780.306 202.3 779.406 202.5 778.006C202.7 776.806 202.5 775.506 201.3 774.906C198.9 773.806 196.3 774.506 193.8 774.406C193.4 774.406 193.4 774.906 193.3 775.206C192.3 779.006 193.4 780.606 197 780.506Z" fill="#ED3D25"/>
</svg>
