<svg width="90" height="12" viewBox="0 0 90 12" fill="none" xmlns="http://www.w3.org/2000/svg">
<path d="M45.126 3.4929C45.0729 3.02225 44.8542 2.65767 44.4697 2.39915C44.0853 2.13731 43.6014 2.00639 43.018 2.00639C42.6004 2.00639 42.2391 2.07268 41.9342 2.20526C41.6293 2.33452 41.3923 2.51349 41.2233 2.74219C41.0576 2.96757 40.9747 3.22443 40.9747 3.51278C40.9747 3.75473 41.031 3.96354 41.1437 4.1392C41.2597 4.31487 41.4105 4.46236 41.5961 4.58168C41.7851 4.69768 41.9872 4.79545 42.2027 4.875C42.4181 4.95123 42.6253 5.0142 42.8241 5.06392L43.8184 5.32244C44.1433 5.40199 44.4764 5.50971 44.8177 5.6456C45.1591 5.78149 45.4756 5.96046 45.7673 6.18253C46.059 6.40459 46.2943 6.67969 46.4733 7.00781C46.6556 7.33594 46.7467 7.72869 46.7467 8.18608C46.7467 8.76278 46.5976 9.27486 46.2993 9.7223C46.0043 10.1697 45.5751 10.5227 45.0116 10.7812C44.4515 11.0398 43.7737 11.169 42.9782 11.169C42.2159 11.169 41.5564 11.0481 40.9996 10.8061C40.4427 10.5642 40.0069 10.2211 39.692 9.77699C39.3772 9.32955 39.2032 8.79924 39.17 8.18608H40.7112C40.741 8.55398 40.8604 8.86056 41.0692 9.10582C41.2813 9.34777 41.5514 9.52841 41.8795 9.64773C42.211 9.76373 42.5739 9.82173 42.9683 9.82173C43.4025 9.82173 43.7886 9.75379 44.1267 9.6179C44.4681 9.47869 44.7365 9.28646 44.9321 9.04119C45.1276 8.79261 45.2254 8.5026 45.2254 8.17116C45.2254 7.86955 45.1392 7.62263 44.9669 7.4304C44.7979 7.23816 44.5675 7.07907 44.2758 6.95312C43.9875 6.82718 43.661 6.71615 43.2964 6.62003L42.0933 6.2919C41.278 6.06984 40.6317 5.74337 40.1544 5.3125C39.6804 4.88163 39.4434 4.31155 39.4434 3.60227C39.4434 3.01562 39.6025 2.50355 39.9207 2.06605C40.2389 1.62855 40.6698 1.28883 41.2133 1.04688C41.7569 0.80161 42.3701 0.678977 43.0528 0.678977C43.7422 0.678977 44.3504 0.799952 44.8774 1.0419C45.4077 1.28385 45.8253 1.61695 46.1302 2.04119C46.4352 2.46212 46.5943 2.94602 46.6075 3.4929H45.126ZM57.4269 5.90909C57.4269 6.99621 57.2281 7.93087 56.8303 8.71307C56.4326 9.49195 55.8874 10.0919 55.1947 10.5128C54.5053 10.9304 53.7214 11.1392 52.8431 11.1392C51.9615 11.1392 51.1743 10.9304 50.4816 10.5128C49.7922 10.0919 49.2487 9.49029 48.8509 8.7081C48.4532 7.9259 48.2544 6.9929 48.2544 5.90909C48.2544 4.82197 48.4532 3.88897 48.8509 3.11008C49.2487 2.32789 49.7922 1.72798 50.4816 1.31037C51.1743 0.889441 51.9615 0.678977 52.8431 0.678977C53.7214 0.678977 54.5053 0.889441 55.1947 1.31037C55.8874 1.72798 56.4326 2.32789 56.8303 3.11008C57.2281 3.88897 57.4269 4.82197 57.4269 5.90909ZM55.9056 5.90909C55.9056 5.08049 55.7714 4.38281 55.5029 3.81605C55.2378 3.24598 54.8732 2.8151 54.4092 2.52344C53.9485 2.22846 53.4265 2.08097 52.8431 2.08097C52.2565 2.08097 51.7328 2.22846 51.2721 2.52344C50.8114 2.8151 50.4468 3.24598 50.1784 3.81605C49.9132 4.38281 49.7806 5.08049 49.7806 5.90909C49.7806 6.73769 49.9132 7.43703 50.1784 8.0071C50.4468 8.57386 50.8114 9.00473 51.2721 9.29972C51.7328 9.59138 52.2565 9.73722 52.8431 9.73722C53.4265 9.73722 53.9485 9.59138 54.4092 9.29972C54.8732 9.00473 55.2378 8.57386 55.5029 8.0071C55.7714 7.43703 55.9056 6.73769 55.9056 5.90909ZM67.5603 0.818182V11H66.1483L60.9729 3.53267H60.8785V11H59.3422V0.818182H60.7641L65.9445 8.29545H66.039V0.818182H67.5603ZM78.6457 5.90909C78.6457 6.99621 78.4468 7.93087 78.0491 8.71307C77.6514 9.49195 77.1061 10.0919 76.4134 10.5128C75.724 10.9304 74.9402 11.1392 74.0619 11.1392C73.1803 11.1392 72.3931 10.9304 71.7004 10.5128C71.011 10.0919 70.4674 9.49029 70.0697 8.7081C69.672 7.9259 69.4731 6.9929 69.4731 5.90909C69.4731 4.82197 69.672 3.88897 70.0697 3.11008C70.4674 2.32789 71.011 1.72798 71.7004 1.31037C72.3931 0.889441 73.1803 0.678977 74.0619 0.678977C74.9402 0.678977 75.724 0.889441 76.4134 1.31037C77.1061 1.72798 77.6514 2.32789 78.0491 3.11008C78.4468 3.88897 78.6457 4.82197 78.6457 5.90909ZM77.1244 5.90909C77.1244 5.08049 76.9901 4.38281 76.7217 3.81605C76.4565 3.24598 76.0919 2.8151 75.6279 2.52344C75.1672 2.22846 74.6452 2.08097 74.0619 2.08097C73.4752 2.08097 72.9516 2.22846 72.4909 2.52344C72.0302 2.8151 71.6656 3.24598 71.3971 3.81605C71.132 4.38281 70.9994 5.08049 70.9994 5.90909C70.9994 6.73769 71.132 7.43703 71.3971 8.0071C71.6656 8.57386 72.0302 9.00473 72.4909 9.29972C72.9516 9.59138 73.4752 9.73722 74.0619 9.73722C74.6452 9.73722 75.1672 9.59138 75.6279 9.29972C76.0919 9.00473 76.4565 8.57386 76.7217 8.0071C76.9901 7.43703 77.1244 6.73769 77.1244 5.90909ZM83.8572 11H80.561V0.818182H83.9616C84.9592 0.818182 85.816 1.02202 86.5319 1.42969C87.2478 1.83404 87.7963 2.41572 88.1775 3.17472C88.5619 3.9304 88.7542 4.83688 88.7542 5.89418C88.7542 6.95478 88.5603 7.86624 88.1725 8.62855C87.788 9.39086 87.2312 9.97751 86.502 10.3885C85.7729 10.7962 84.8912 11 83.8572 11ZM82.0972 9.65767H83.7726C84.5482 9.65767 85.1929 9.51184 85.7066 9.22017C86.2203 8.92519 86.6048 8.49929 86.86 7.94247C87.1152 7.38234 87.2428 6.69957 87.2428 5.89418C87.2428 5.09541 87.1152 4.41761 86.86 3.8608C86.6081 3.30398 86.2319 2.88139 85.7314 2.59304C85.231 2.30469 84.6095 2.16051 83.8671 2.16051H82.0972V9.65767Z" fill="white"/>
<path d="M0 4.31034L10.8138 1V8.06207L0 11.3724V4.31034Z" fill="white"/>
<path d="M10.5933 4.31034L21.4071 1V8.06207L10.5933 11.3724V4.31034Z" fill="white"/>
<path d="M21.186 4.31034L31.9998 1V8.06207L21.186 11.3724V4.31034Z" fill="white"/>
</svg>
