<svg width="18" height="18" viewBox="0 0 18 18" fill="none" xmlns="http://www.w3.org/2000/svg">
<g clip-path="url(#clip0_21_397)">
<path d="M18 3V15C18 16.6545 16.6545 18 15 18H12.75C12.336 18 12 17.664 12 17.25C12 16.836 12.336 16.5 12.75 16.5H15C15.8273 16.5 16.5 15.8273 16.5 15V3C16.5 2.17275 15.8273 1.5 15 1.5H12.75C12.336 1.5 12 1.164 12 0.75C12 0.336 12.336 0 12.75 0H15C16.6545 0 18 1.3455 18 3ZM12.7388 10.8375L8.769 14.7915C8.388 15.1733 7.87275 15.375 7.33875 15.375C7.062 15.375 6.78075 15.321 6.51075 15.2092C5.736 14.8905 5.253 14.1953 5.25 13.3958V12H2.25C1.0095 12 0 10.9905 0 9.75V8.25C0 7.0095 1.0095 6 2.25 6H5.25V4.60575C5.25375 3.80325 5.73675 3.108 6.5115 2.79C7.30275 2.46525 8.19 2.62875 8.7705 3.20925L12.738 7.1595C13.752 8.17425 13.7512 9.82275 12.738 10.8368L12.7388 10.8375ZM11.6783 8.2215L7.71075 4.27125C7.527 4.0875 7.266 4.10325 7.08225 4.1775C6.98325 4.21875 6.7515 4.3425 6.75075 4.6095V6.75C6.75075 7.164 6.41475 7.5 6.00075 7.5H2.25C1.83675 7.5 1.5 7.83675 1.5 8.25V9.75C1.5 10.1632 1.83675 10.5 2.25 10.5H6C6.414 10.5 6.75 10.836 6.75 11.25V13.3928C6.75075 13.6575 6.9825 13.782 7.0815 13.8225C7.2645 13.8983 7.52625 13.914 7.7085 13.7302L11.6783 9.77625C12.1058 9.348 12.1058 8.6505 11.6783 8.2215Z" fill="#374957"/>
</g>
<defs>
<clipPath id="clip0_21_397">
<rect width="18" height="18" fill="white"/>
</clipPath>
</defs>
</svg>
