<svg width="24" height="24" viewBox="0 0 24 24" fill="none" xmlns="http://www.w3.org/2000/svg">
<g clip-path="url(#clip0_22_404)">
<path d="M23.13 4.153L19.894 0.888C19.469 0.458 18.513 0 17.763 0H9C6.243 0 4 2.243 4 5V15C4 17.757 6.243 20 9 20H19C21.757 20 24 17.757 24 15V6.266C24 5.469 23.69 4.717 23.13 4.153ZM11 2H17V6H11V2ZM22 15C22 16.654 20.654 18 19 18H9C7.346 18 6 16.654 6 15V5C6 3.346 7.346 2 9 2V6C9 7.103 9.897 8 11 8H17C18.103 8 19 7.103 19 6V2.828L21.711 5.562C21.898 5.75 22 6 22 6.266V15ZM18 23C18 23.552 17.553 24 17 24H9C4.037 24 0 19.962 0 15V7C0 6.448 0.447 6 1 6C1.553 6 2 6.448 2 7V15C2 18.86 5.141 22 9 22H17C17.553 22 18 22.448 18 23ZM14 10C12.346 10 11 11.346 11 13C11 14.654 12.346 16 14 16C15.654 16 17 14.654 17 13C17 11.346 15.654 10 14 10ZM14 14C13.448 14 13 13.551 13 13C13 12.449 13.448 12 14 12C14.552 12 15 12.449 15 13C15 13.551 14.552 14 14 14Z" fill="#CCF4F5"/>
</g>
<defs>
<clipPath id="clip0_22_404">
<rect width="24" height="24" fill="white"/>
</clipPath>
</defs>
</svg>
