<svg width="14" height="18" viewBox="0 0 14 18" fill="none" xmlns="http://www.w3.org/2000/svg">
<path d="M13.75 17.925L11.0027 16.0417L9.00475 17.4105L7.00525 16.041L5.00575 17.409L3.0025 16.0395L0.25 17.925V2.25C0.25 1.65326 0.487053 1.08097 0.90901 0.65901C1.33097 0.237053 1.90326 0 2.5 0L11.5 0C12.0967 0 12.669 0.237053 13.091 0.65901C13.5129 1.08097 13.75 1.65326 13.75 2.25V17.925ZM3.0025 14.2215L5.005 15.591L7.00525 14.2215L9.00475 15.591L11.0035 14.2208L12.25 15.075V2.25C12.25 2.05109 12.171 1.86032 12.0303 1.71967C11.8897 1.57902 11.6989 1.5 11.5 1.5H2.5C2.30109 1.5 2.11032 1.57902 1.96967 1.71967C1.82902 1.86032 1.75 2.05109 1.75 2.25V15.075L3.0025 14.2215Z" fill="#374957"/>
<path d="M10.75 6H3.25V7.5H10.75V6Z" fill="#374957"/>
<path d="M9.25 9H3.25V10.5H9.25V9Z" fill="#374957"/>
</svg>
