<svg width="18" height="18" viewBox="0 0 18 18" fill="none" xmlns="http://www.w3.org/2000/svg">
<path d="M17.7073 8.12569L16.4188 5.43169C16.2553 5.09044 15.8623 4.92319 15.5045 5.04394L8.99678 7.21594L2.48003 5.04469C2.12228 4.92544 1.72928 5.09119 1.56578 5.43319L0.32678 8.03794C-0.0309698 8.63194 -0.0984698 9.34519 0.14153 9.99469C0.37403 10.6247 0.86453 11.1129 1.49228 11.3409L1.48778 13.0772C1.48778 14.6949 2.51753 16.1259 4.05203 16.6374L7.32578 17.7294C7.86128 17.9072 8.42378 17.9964 8.98628 17.9964C9.54878 17.9964 10.1113 17.9072 10.6468 17.7287L13.9235 16.6367C15.4565 16.1252 16.487 14.6972 16.4878 13.0832L16.4923 11.3417C17.1268 11.1197 17.6233 10.6329 17.8565 10.0007C18.0935 9.35719 18.0268 8.65069 17.7073 8.12569ZM1.64528 8.74819L2.63378 6.67594L7.93253 8.44144L6.71753 10.8834C6.53603 11.1879 6.17078 11.3214 5.83703 11.2104L2.02628 9.93919C1.80278 9.86494 1.62878 9.69619 1.54703 9.47569C1.46603 9.25594 1.48928 9.01369 1.64528 8.74819ZM4.52678 15.2154C3.60578 14.9079 2.98703 14.0492 2.98778 13.0794L2.99078 11.8419L5.36378 12.6332C6.37328 12.9677 7.45853 12.5657 8.03303 11.6042L8.24078 11.1879L8.23778 16.4222C8.09003 16.3922 7.94453 16.3539 7.80128 16.3067L4.52753 15.2154H4.52678ZM13.4488 15.2139L10.172 16.3059C10.0295 16.3532 9.88403 16.3922 9.73703 16.4222L9.74003 11.1759L9.97928 11.6559C10.397 12.3519 11.1283 12.7509 11.9008 12.7509C12.1393 12.7509 12.383 12.7127 12.6208 12.6332L14.9908 11.8434L14.9878 13.0817C14.9878 14.0507 14.369 14.9072 13.4488 15.2139ZM16.4488 9.48019C16.37 9.69394 16.2005 9.85819 15.9845 9.93094L12.146 11.2097C11.8175 11.3199 11.4448 11.1827 11.294 10.9359L10.0535 8.44444L15.3515 6.67669L16.388 8.83669C16.505 9.03244 16.5283 9.26644 16.4488 9.48019ZM3.91028 4.42069C3.61703 4.12744 3.61703 3.65344 3.91028 3.36019L6.83303 0.438187C7.41728 -0.146063 8.36978 -0.146063 8.95403 0.438187L10.151 1.63519C10.7158 1.34644 11.4545 1.43269 11.9158 1.89394L13.607 3.58519C13.9003 3.87844 13.9003 4.35244 13.607 4.64569C13.3138 4.93894 12.8398 4.93894 12.5465 4.64569L10.8553 2.95444L8.49203 5.31769C8.34578 5.46394 8.15378 5.53744 7.96178 5.53744C7.76978 5.53744 7.57778 5.46394 7.43153 5.31769C7.13828 5.02444 7.13828 4.55044 7.43153 4.25719L9.04178 2.64694L7.89428 1.49944L4.97153 4.42144C4.82528 4.56769 4.63328 4.64119 4.44128 4.64119C4.24928 4.64119 4.05728 4.56769 3.91103 4.42144L3.91028 4.42069Z" fill="#374957"/>
</svg>
