<svg width="24" height="24" viewBox="0 0 24 24" fill="none" xmlns="http://www.w3.org/2000/svg">
<path d="M12 0C5.38 0 0 5.38 0 12C0 18.62 5.38 24 12 24C18.62 24 24 18.62 24 12C24 5.38 18.62 0 12 0ZM17.17 11.62L15 13.39L15.9 16.12C16.02 16.49 15.9 16.9 15.59 17.13C15.28 17.37 14.86 17.38 14.53 17.17L12.01 15.53L9.53 17.19C9.38 17.29 9.2 17.34 9.02 17.34C8.83 17.34 8.63 17.28 8.47 17.16C8.16 16.93 8.03 16.52 8.15 16.15L9.01 13.39L6.83 11.62C6.54 11.37 6.43 10.97 6.56 10.61C6.69 10.25 7.04 10.01 7.42 10.01H10.17L11.14 7.4C11.27 7.04 11.62 6.8 12 6.8C12.38 6.8 12.73 7.04 12.86 7.4L13.83 10.01H16.58C16.96 10.01 17.31 10.25 17.44 10.61C17.57 10.97 17.46 11.38 17.17 11.63V11.62Z" fill="#E97B00"/>
</svg>
